<svg xmlns="http://www.w3.org/2000/svg" width="21.255" height="21.292" viewBox="0 0 21.255 21.292">
  <path id="Icon_feather-phone-call" data-name="Icon feather-phone-call" d="M15.028,5.167A4.584,4.584,0,0,1,18.65,8.788M15.028,1.5a8.251,8.251,0,0,1,7.288,7.279M21.4,16.094v2.75a1.833,1.833,0,0,1-2,1.833,18.142,18.142,0,0,1-7.911-2.814,17.876,17.876,0,0,1-5.5-5.5A18.142,18.142,0,0,1,3.175,4.415,1.833,1.833,0,0,1,5,2.417H7.75A1.833,1.833,0,0,1,9.583,3.993a11.771,11.771,0,0,0,.642,2.576A1.833,1.833,0,0,1,9.812,8.5L8.648,9.668a14.668,14.668,0,0,0,5.5,5.5L15.313,14a1.833,1.833,0,0,1,1.934-.413,11.771,11.771,0,0,0,2.576.642A1.833,1.833,0,0,1,21.4,16.094Z" transform="translate(-2.167 -0.396)" fill="none" stroke="#000" stroke-linecap="round" stroke-linejoin="round" stroke-width="2"/>
</svg>
