<svg id="그룹_8" data-name="그룹 8" xmlns="http://www.w3.org/2000/svg" xmlns:xlink="http://www.w3.org/1999/xlink" width="96.758" height="110.103" viewBox="0 0 96.758 110.103">
  <defs>
    <clipPath id="clip-path">
      <rect id="사각형_144" data-name="사각형 144" width="96.758" height="110.103" fill="#fff"/>
    </clipPath>
  </defs>
  <g id="그룹_7" data-name="그룹 7" clip-path="url(#clip-path)">
    <path id="패스_135" data-name="패스 135" d="M95.09,0H1.668A1.666,1.666,0,0,0,0,1.665V61.722C0,88.3,45.748,109.085,47.693,109.954a1.636,1.636,0,0,0,1.365,0c1.947-.869,47.7-21.656,47.7-48.232V1.665A1.666,1.666,0,0,0,95.09,0M93.42,61.722c0,22.764-39.341,42.181-45.044,44.872C42.674,103.9,3.338,84.5,3.338,61.722V3.333H93.42Z" fill="#fff"/>
    <path id="패스_136" data-name="패스 136" d="M11.122,52.687H61.168a1.666,1.666,0,0,0,1.668-1.668V45.111A9.464,9.464,0,0,0,57.193,36.6a42.922,42.922,0,0,0-6.079-2.289c-.876-.259-1.762-.507-2.656-.718l-.041-.011a6.056,6.056,0,0,1-4.556-4.4c-.007-.05-.014-.112-.021-.177A15.734,15.734,0,0,0,48.655,17.42c0-7.643-5.143-12.981-12.508-12.981S23.634,9.777,23.634,17.42A15.734,15.734,0,0,0,28.44,28.987c-.016.133-.032.255-.053.344A5.849,5.849,0,0,1,23.88,33.58c-.927.218-1.821.47-2.723.739A42.182,42.182,0,0,0,15.09,36.6a9.454,9.454,0,0,0-5.636,8.5V51.02a1.668,1.668,0,0,0,1.668,1.668M26.972,17.42c0-5.861,3.6-9.646,9.175-9.646s9.173,3.785,9.173,9.646c0,6.271-4.115,11.38-9.173,11.38s-9.175-5.108-9.175-11.38M31.36,31.011a10.742,10.742,0,0,0,9.577,0,9.08,9.08,0,0,0,3.645,4.478c-.867,1.454-4.007,3.131-8.434,3.131-4.5,0-7.593-1.64-8.444-3.1a8.942,8.942,0,0,0,3.656-4.507M12.792,45.1a6.154,6.154,0,0,1,3.725-5.485,39.354,39.354,0,0,1,5.595-2.106c.842-.25,1.672-.479,2.542-.684h0c1.463,2.987,5.959,5.129,11.492,5.129s10.008-2.142,11.481-5.134l0,0c.856.2,1.7.434,2.532.679a39.1,39.1,0,0,1,5.606,2.106,6.171,6.171,0,0,1,3.732,5.5v4.244H12.792Z" transform="translate(12.232 5.743)" fill="#fff"/>
    <path id="패스_137" data-name="패스 137" d="M11.123,32.2H61.169a1.669,1.669,0,0,0,0-3.338H11.123a1.669,1.669,0,0,0,0,3.338" transform="translate(12.233 37.349)" fill="#fff"/>
    <path id="패스_138" data-name="패스 138" d="M11.123,37.055H45.6a1.669,1.669,0,0,0,0-3.338H11.123a1.669,1.669,0,0,0,0,3.338" transform="translate(12.233 43.624)" fill="#fff"/>
  </g>
</svg>
