<svg xmlns="http://www.w3.org/2000/svg" width="19.149" height="19.148" viewBox="0 0 19.149 19.148">
  <path id="Icon_awesome-fax" data-name="Icon awesome-fax" d="M2.394,4.787H1.2A1.2,1.2,0,0,0,0,5.984V17.952a1.2,1.2,0,0,0,1.2,1.2h1.2a1.2,1.2,0,0,0,1.2-1.2V5.984A1.2,1.2,0,0,0,2.394,4.787Zm15.558,1.2V2.889a1.2,1.2,0,0,0-.35-.846L15.909.35A1.2,1.2,0,0,0,15.062,0H5.984a1.2,1.2,0,0,0-1.2,1.2V17.952a1.2,1.2,0,0,0,1.2,1.2H17.952a1.2,1.2,0,0,0,1.2-1.2V7.181A1.2,1.2,0,0,0,17.952,5.984ZM10.771,16.157a.6.6,0,0,1-.6.6h-1.2a.6.6,0,0,1-.6-.6v-1.2a.6.6,0,0,1,.6-.6h1.2a.6.6,0,0,1,.6.6Zm0-4.787a.6.6,0,0,1-.6.6h-1.2a.6.6,0,0,1-.6-.6v-1.2a.6.6,0,0,1,.6-.6h1.2a.6.6,0,0,1,.6.6Zm4.787,4.787a.6.6,0,0,1-.6.6h-1.2a.6.6,0,0,1-.6-.6v-1.2a.6.6,0,0,1,.6-.6h1.2a.6.6,0,0,1,.6.6Zm0-4.787a.6.6,0,0,1-.6.6h-1.2a.6.6,0,0,1-.6-.6v-1.2a.6.6,0,0,1,.6-.6h1.2a.6.6,0,0,1,.6.6Zm.6-4.189H6.582V1.8h7.779v1.2a.6.6,0,0,0,.6.6h1.2Z"/>
</svg>
