<svg xmlns="http://www.w3.org/2000/svg" xmlns:xlink="http://www.w3.org/1999/xlink" width="125" height="125" viewBox="0 0 125 125">
  <defs>
    <clipPath id="clip-path">
      <rect id="사각형_145" data-name="사각형 145" width="125" height="125" fill="#fff"/>
    </clipPath>
  </defs>
  <g id="그룹_10" data-name="그룹 10" transform="translate(-0.5 -0.5)">
    <g id="그룹_9" data-name="그룹 9" transform="translate(0.5 0.5)" clip-path="url(#clip-path)">
      <path id="패스_139" data-name="패스 139" d="M49.448,8.243a41.2,41.2,0,1,0,41.207,41.2,41.251,41.251,0,0,0-41.207-41.2m-5.188,4.2A73.451,73.451,0,0,0,31.993,29.061,68.293,68.293,0,0,1,22,24.127,37.318,37.318,0,0,1,44.26,12.445M19.542,27.084a72.658,72.658,0,0,0,10.8,5.408A42.878,42.878,0,0,0,26.6,47.541H12.145a37.1,37.1,0,0,1,7.4-20.457m0,44.727a37.1,37.1,0,0,1-7.4-20.463H26.6A42.949,42.949,0,0,0,30.34,66.406a71.665,71.665,0,0,0-10.8,5.405M22,74.764a68.3,68.3,0,0,1,9.992-4.932A73.242,73.242,0,0,0,44.267,86.445,37.289,37.289,0,0,1,22,74.764M47.547,84.34a72.092,72.092,0,0,1-11.89-15.8,47.063,47.063,0,0,1,11.89-2.163Zm0-21.765a50.917,50.917,0,0,0-13.606,2.534,39.372,39.372,0,0,1-3.546-13.76H47.547Zm0-15.034H30.395a39.358,39.358,0,0,1,3.546-13.758,50.833,50.833,0,0,0,13.606,2.534Zm0-15.029a46.946,46.946,0,0,1-11.89-2.16,71.835,71.835,0,0,1,11.89-15.8ZM76.9,24.127a67.607,67.607,0,0,1-9.989,4.935A73.631,73.631,0,0,0,54.644,12.451,37.284,37.284,0,0,1,76.9,24.127M51.352,14.55a72.013,72.013,0,0,1,11.893,15.8,46.945,46.945,0,0,1-11.893,2.16Zm0,21.767A50.853,50.853,0,0,0,64.96,33.784a39.358,39.358,0,0,1,3.546,13.758H51.352Zm0,15.031H68.506a39.372,39.372,0,0,1-3.546,13.76,50.956,50.956,0,0,0-13.609-2.534Zm0,15.031a47.062,47.062,0,0,1,11.893,2.163,72.089,72.089,0,0,1-11.893,15.8Zm3.282,20.065A73.4,73.4,0,0,0,66.908,69.832,68.128,68.128,0,0,1,76.9,74.764,37.3,37.3,0,0,1,54.633,86.445M79.356,71.811a71.628,71.628,0,0,0-10.795-5.405A43.006,43.006,0,0,0,72.3,51.349H86.756a37.126,37.126,0,0,1-7.4,20.463m7.4-24.27H72.3a42.934,42.934,0,0,0-3.739-15.049,72.787,72.787,0,0,0,10.8-5.408,37.141,37.141,0,0,1,7.4,20.457" transform="translate(12.792 12.792)" fill="#fff"/>
      <path id="패스_140" data-name="패스 140" d="M125.521,62.76A62.67,62.67,0,0,0,26.642,11.519a10.676,10.676,0,0,0-6.985-2.641,10.719,10.719,0,0,0-8.13,17.774A62.667,62.667,0,0,0,98.884,114,10.719,10.719,0,0,0,114,98.871,62.335,62.335,0,0,0,125.521,62.76M19.657,12.683a6.972,6.972,0,1,1-6.974,6.972,6.976,6.976,0,0,1,6.974-6.972m86.215,100.158a6.974,6.974,0,1,1,6.972-6.972,6.98,6.98,0,0,1-6.972,6.972m5.175-16.365a10.615,10.615,0,0,0-5.175-1.383,10.785,10.785,0,0,0-10.779,10.776,10.628,10.628,0,0,0,1.386,5.173,58.867,58.867,0,0,1-82-81.994,10.669,10.669,0,0,0,5.18,1.383A10.79,10.79,0,0,0,30.434,19.654a10.617,10.617,0,0,0-1.386-5.178,58.869,58.869,0,0,1,82,82" transform="translate(-0.521 -0.521)" fill="#fff"/>
    </g>
  </g>
</svg>
