<svg xmlns="http://www.w3.org/2000/svg" xmlns:xlink="http://www.w3.org/1999/xlink" width="122" height="121" viewBox="0 0 122 121">
  <defs>
    <clipPath id="clip-path">
      <rect id="사각형_143" data-name="사각형 143" width="122" height="121" transform="translate(0 0)" fill="#fff"/>
    </clipPath>
  </defs>
  <g id="그룹_6" data-name="그룹 6" transform="translate(0 0)">
    <g id="그룹_5" data-name="그룹 5" transform="translate(0 0.001)" clip-path="url(#clip-path)">
      <path id="패스_128" data-name="패스 128" d="M17.075,22.371A11.185,11.185,0,1,0,5.89,11.185,11.2,11.2,0,0,0,17.075,22.371m0-18.689a7.505,7.505,0,1,1-7.5,7.5,7.511,7.511,0,0,1,7.5-7.5" transform="translate(9.012 -0.001)" fill="#fff"/>
      <path id="패스_129" data-name="패스 129" d="M44.454,22.371A11.185,11.185,0,1,0,33.269,11.185,11.2,11.2,0,0,0,44.454,22.371m0-18.689a7.505,7.505,0,1,1-7.5,7.5,7.512,7.512,0,0,1,7.5-7.5" transform="translate(50.903 -0.001)" fill="#fff"/>
      <path id="패스_130" data-name="패스 130" d="M108.936,10.717H84.7a12.452,12.452,0,0,0-11.213,6.945L60.721,43.337,47.959,17.662a12.46,12.46,0,0,0-11.175-6.945H12.511A12.525,12.525,0,0,0,0,23.225V54.347a7.185,7.185,0,0,0,7.178,7.175,7.063,7.063,0,0,0,3.491-.949V96.493a8.641,8.641,0,0,0,15.418,5.273,8.641,8.641,0,0,0,15.418-5.273V46.254a1.841,1.841,0,0,0-3.681,0v7.514H14.35V25.077a1.841,1.841,0,0,0-3.681,0v29.27a3.494,3.494,0,1,1-6.988,0V23.225a8.837,8.837,0,0,1,8.83-8.827H24.372a1.814,1.814,0,0,0,3.433,0h8.971a8.786,8.786,0,0,1,7.886,4.9L58.515,47.167a3.493,3.493,0,1,1-6.257,3.107l-13.03-26.2a1.84,1.84,0,0,0-3.3,1.634l13.03,26.211a7.184,7.184,0,0,0,9.619,3.231,7.082,7.082,0,0,0,2.14-1.65,7.161,7.161,0,0,0,11.762-1.581L85.513,25.7a1.84,1.84,0,1,0-3.3-1.634l-13.027,26.2a3.494,3.494,0,1,1-6.259-3.107L76.781,19.3A8.789,8.789,0,0,1,84.7,14.4h24.238a8.838,8.838,0,0,1,8.827,8.827V54.347a3.494,3.494,0,1,1-6.988,0V25.077a1.841,1.841,0,0,0-3.681,0V53.768H83.62V46.254a1.839,1.839,0,1,0-3.679,0V96.493a8.639,8.639,0,0,0,15.415,5.273,8.641,8.641,0,0,0,15.418-5.273V60.574a7.063,7.063,0,0,0,3.491.949,7.186,7.186,0,0,0,7.178-7.175V23.225a12.525,12.525,0,0,0-12.508-12.508M14.35,57.449H37.824V96.493a4.948,4.948,0,0,1-9.895,0V64.551a1.841,1.841,0,1,0-3.681,0V96.493a4.949,4.949,0,0,1-9.9,0Zm92.743,39.043a4.949,4.949,0,0,1-9.9,0V64.551a1.839,1.839,0,1,0-3.679,0V96.493a4.949,4.949,0,0,1-9.9,0V57.449h23.474Z" transform="translate(0 16.396)" fill="#fff"/>
      <path id="패스_131" data-name="패스 131" d="M13.264,22.675a1.841,1.841,0,0,0-3.681,0v2.219a1.841,1.841,0,0,0,3.681,0Z" transform="translate(14.662 31.878)" fill="#fff"/>
      <path id="패스_132" data-name="패스 132" d="M13.264,15.669a1.841,1.841,0,0,0-3.681,0v2.219a1.841,1.841,0,0,0,3.681,0Z" transform="translate(14.662 21.159)" fill="#fff"/>
      <path id="패스_133" data-name="패스 133" d="M13.264,19.176a1.841,1.841,0,1,0-3.681,0V21.39a1.841,1.841,0,0,0,3.681,0Z" transform="translate(14.662 26.517)" fill="#fff"/>
      <path id="패스_134" data-name="패스 134" d="M11.423,24.338a1.842,1.842,0,0,0-1.839,1.844v1.225a1.839,1.839,0,0,0,3.679,0V26.182a1.84,1.84,0,0,0-1.839-1.844" transform="translate(14.664 37.237)" fill="#fff"/>
    </g>
  </g>
</svg>
